<svg width="182" height="52" viewBox="0 0 182 52" fill="none" xmlns="http://www.w3.org/2000/svg">
<path d="M51 0L33.5278 26.9745L51 52H0L17.4722 25.5712L0 0H51Z" fill="#FF1E2E"/>
<path d="M76 4.324H82.02V23H81.908H76L69.224 13.116V23H63.26V4.324H69.224L76 14.376V4.324ZM93.2134 4.324V23H87.1934V9.98H83.7214V6.844L87.1934 4.324H93.2134ZM115.792 4.324H117.752V23H111.676V10.82L106.916 17.96L101.792 10.54V23H95.7444V4.324H97.7324H101.792H111.676H115.792ZM138.192 4.324L131.976 14.012L138.192 23H120.048L126.264 13.508L120.048 4.324H138.192ZM153.219 4.324H159.239V23H159.127H153.219L146.443 13.116V23H140.479V4.324H146.443L153.219 14.376V4.324ZM174.632 5.528C175.454 6.088 176.107 6.788 176.592 7.628C177.059 8.39333 177.414 9.23333 177.656 10.148C177.918 11.044 178.076 11.9587 178.132 12.892C178.188 13.8253 178.151 14.7493 178.02 15.664C177.908 16.56 177.712 17.3907 177.432 18.156C177.19 18.828 176.882 19.4627 176.508 20.06C176.135 20.6573 175.65 21.1893 175.052 21.656C174.623 22.0667 174.016 22.3653 173.232 22.552C173.139 22.5893 172.784 22.6733 172.168 22.804C171.571 22.9347 170.843 23 169.984 23H161.752V16.084V5.332V4.324H168.248C168.808 4.324 169.35 4.324 169.872 4.324C170.414 4.324 170.946 4.36133 171.468 4.436C172.01 4.492 172.542 4.604 173.064 4.772C173.587 4.94 174.11 5.192 174.632 5.528ZM169.424 17.876C169.891 17.876 170.283 17.7267 170.6 17.428C170.918 17.1293 171.17 16.7653 171.356 16.336C171.543 15.888 171.674 15.412 171.748 14.908C171.823 14.404 171.86 13.9467 171.86 13.536C171.86 13.1253 171.804 12.6867 171.692 12.22C171.599 11.7533 171.44 11.324 171.216 10.932C171.011 10.54 170.759 10.2227 170.46 9.98C170.162 9.71867 169.816 9.588 169.424 9.588H167.94V17.876H169.116H169.172H169.424Z" fill="#111111"/>
<rect x="62" y="29" width="62" height="18" rx="2" fill="#222222"/>
<path d="M72.328 33.996H74.932V42H72.328V38.928H70.084V42H67.54V33.996H70.096L70.084 37.068H72.328V33.996ZM80.6447 37.344C80.8207 37.448 80.9927 37.56 81.1607 37.68C81.3287 37.792 81.4767 37.92 81.6047 38.064C81.7407 38.208 81.8527 38.372 81.9407 38.556C82.0367 38.74 82.1007 38.948 82.1327 39.18C82.1807 39.468 82.1767 39.748 82.1207 40.02C82.0727 40.284 81.9887 40.528 81.8687 40.752C81.6767 41.064 81.4167 41.332 81.0887 41.556C80.7607 41.78 80.3847 41.932 79.9607 42.012C79.5287 42.1 79.0727 42.136 78.5927 42.12C78.1207 42.112 77.6727 42.004 77.2487 41.796C76.8167 41.604 76.4727 41.332 76.2167 40.98C75.9687 40.628 75.8447 40.224 75.8447 39.768L78.0167 39.396C78.0327 39.396 78.0527 39.416 78.0767 39.456C78.1007 39.488 78.1247 39.528 78.1487 39.576C78.1727 39.624 78.1927 39.672 78.2087 39.72C78.2247 39.768 78.2407 39.8 78.2567 39.816C78.3207 39.896 78.3887 39.968 78.4607 40.032C78.5327 40.096 78.6207 40.148 78.7247 40.188C78.9327 40.236 79.1167 40.212 79.2767 40.116C79.4447 40.012 79.5367 39.864 79.5527 39.672C79.5607 39.576 79.5487 39.484 79.5167 39.396C79.4847 39.3 79.4407 39.208 79.3847 39.12C79.3447 39.08 79.3047 39.032 79.2647 38.976C79.2247 38.912 79.1767 38.86 79.1207 38.82C78.9447 38.684 78.7927 38.592 78.6647 38.544C78.5447 38.496 78.4407 38.452 78.3527 38.412C78.3447 38.228 78.3407 38.048 78.3407 37.872C78.3407 37.688 78.3367 37.508 78.3287 37.332L79.3727 36.18H76.3967V33.996L81.7007 34.008V35.1V36.324L80.6447 37.344ZM90.8177 33.996L88.1537 38.148L90.8177 42H83.0417L85.7057 37.932L83.0417 33.996H90.8177ZM97.2338 37.548C97.5218 37.796 97.7498 38.096 97.9178 38.448C98.0938 38.792 98.1818 39.144 98.1818 39.504C98.1818 39.784 98.1258 40.068 98.0138 40.356C97.9098 40.644 97.7618 40.908 97.5698 41.148C97.3858 41.38 97.1658 41.576 96.9098 41.736C96.6618 41.896 96.3898 41.984 96.0938 42H93.8138H91.7978V34.428V33.996H95.7218V34.008C96.0498 34.008 96.3338 34.068 96.5738 34.188C96.8138 34.3 97.0098 34.456 97.1618 34.656C97.3218 34.848 97.4378 35.08 97.5098 35.352C97.5818 35.616 97.6178 35.904 97.6178 36.216C97.6178 36.472 97.5818 36.712 97.5098 36.936C97.4458 37.16 97.3538 37.364 97.2338 37.548ZM95.4578 36.672C95.4578 36.528 95.4178 36.376 95.3378 36.216C95.2658 36.056 95.1658 35.976 95.0378 35.976H94.2938V37.32H95.0378C95.1578 37.312 95.2578 37.24 95.3378 37.104C95.4178 36.968 95.4578 36.824 95.4578 36.672ZM95.1098 40.08C95.2378 40.08 95.3378 40.004 95.4098 39.852C95.4818 39.7 95.5178 39.548 95.5178 39.396C95.5178 39.316 95.5058 39.232 95.4818 39.144C95.4658 39.056 95.4378 38.976 95.3978 38.904C95.3658 38.832 95.3258 38.772 95.2778 38.724C95.2298 38.676 95.1738 38.652 95.1098 38.652H94.2938V40.08H95.1098ZM103.742 37.344C103.918 37.448 104.09 37.56 104.258 37.68C104.426 37.792 104.574 37.92 104.702 38.064C104.838 38.208 104.95 38.372 105.038 38.556C105.134 38.74 105.198 38.948 105.23 39.18C105.278 39.468 105.274 39.748 105.218 40.02C105.17 40.284 105.086 40.528 104.966 40.752C104.774 41.064 104.514 41.332 104.186 41.556C103.858 41.78 103.482 41.932 103.058 42.012C102.626 42.1 102.17 42.136 101.69 42.12C101.218 42.112 100.77 42.004 100.346 41.796C99.9143 41.604 99.5703 41.332 99.3143 40.98C99.0663 40.628 98.9423 40.224 98.9423 39.768L101.114 39.396C101.13 39.396 101.15 39.416 101.174 39.456C101.198 39.488 101.222 39.528 101.246 39.576C101.27 39.624 101.29 39.672 101.306 39.72C101.322 39.768 101.338 39.8 101.354 39.816C101.418 39.896 101.486 39.968 101.558 40.032C101.63 40.096 101.718 40.148 101.822 40.188C102.03 40.236 102.214 40.212 102.374 40.116C102.542 40.012 102.634 39.864 102.65 39.672C102.658 39.576 102.646 39.484 102.614 39.396C102.582 39.3 102.538 39.208 102.482 39.12C102.442 39.08 102.402 39.032 102.362 38.976C102.322 38.912 102.274 38.86 102.218 38.82C102.042 38.684 101.89 38.592 101.762 38.544C101.642 38.496 101.538 38.452 101.45 38.412C101.442 38.228 101.438 38.048 101.438 37.872C101.438 37.688 101.434 37.508 101.426 37.332L102.47 36.18H99.4943V33.996L104.798 34.008V35.1V36.324L103.742 37.344ZM112.679 36.672C112.679 37.096 112.615 37.484 112.487 37.836C112.359 38.188 112.179 38.488 111.947 38.736L113.075 42H110.543L109.691 39.456H108.839V42H106.235V33.996H110.555V34.008C110.843 34.032 111.115 34.128 111.371 34.296C111.635 34.456 111.863 34.66 112.055 34.908C112.247 35.156 112.399 35.436 112.511 35.748C112.623 36.052 112.679 36.36 112.679 36.672ZM108.851 37.776H109.535C109.671 37.744 109.775 37.656 109.847 37.512C109.927 37.368 109.967 37.224 109.967 37.08C109.967 37.008 109.955 36.932 109.931 36.852C109.915 36.764 109.887 36.684 109.847 36.612C109.815 36.532 109.771 36.468 109.715 36.42C109.659 36.364 109.599 36.336 109.535 36.336H108.851V37.776ZM113.765 34.008H120.209V36.336H118.277V42H115.697V36.336H113.765V34.008Z" fill="white"/>
</svg>
